<?xml version="1.0" encoding="UTF-8" standalone="no"?>
<svg width="610" height="176" viewBox="0 0 610 176" fill="none" version="1.1" id="svg41" sodipodi:docname="Chroma Shift logo.svg" inkscape:version="1.3.2 (091e20e, 2023-11-25, custom)" inkscape:export-filename="Chroma Shift logo.png" inkscape:export-xdpi="157.37704" inkscape:export-ydpi="157.37704" xmlns:inkscape="http://www.inkscape.org/namespaces/inkscape" xmlns:sodipodi="http://sodipodi.sourceforge.net/DTD/sodipodi-0.dtd" xmlns="http://www.w3.org/2000/svg" xmlns:svg="http://www.w3.org/2000/svg">
  <sodipodi:namedview id="namedview41" pagecolor="#ffffff" bordercolor="#666666" borderopacity="1.0" inkscape:showpageshadow="2" inkscape:pageopacity="0.0" inkscape:pagecheckerboard="0" inkscape:deskcolor="#d1d1d1" inkscape:zoom="1.7737705" inkscape:cx="305" inkscape:cy="88.230129" inkscape:window-width="1920" inkscape:window-height="1001" inkscape:window-x="-9" inkscape:window-y="-9" inkscape:window-maximized="1" inkscape:current-layer="svg41"/>
  <g clip-path="url(#clip0_437_2699)" id="g18">
    <path d="M218.678 111.695C221.949 98.0265 212.906 90.2449 193.625 90.2449C174.231 90.2449 157.933 99.1685 153.689 111.695C149.634 123.653 156.111 128.968 168.334 131.055L184.947 133.904C189.226 134.661 190.492 136.276 189.655 138.746C188.436 142.349 183.628 144.821 176.597 144.821C169.224 144.821 165.425 141.973 165.895 136.564H143.781C140.753 150.512 150.919 159.339 171.107 159.339C190.844 159.339 208.159 149.754 212.889 135.803C216.555 124.983 211.435 119.001 198.728 117.008L180.33 114.065C176.893 113.498 175.693 112.359 176.492 109.986C177.783 106.19 182.915 104.766 188.245 104.766C194.825 104.766 197.053 107.899 196.672 111.695H218.678Z" fill="white" id="path1" style="fill:#000000"/>
    <path d="M277.471 111.969L275.627 117.483H250.508L259.219 91.5723H236.789L214.269 158.012H236.698L243.27 138.737H268.262L261.691 158.012H284.051L305.516 94.686L277.471 111.969Z" fill="white" id="path2" style="fill:#000000"/>
    <path d="M317.07 91.6054L288.483 176L316.907 158.061L339.417 91.6054H317.07Z" fill="white" id="path3" style="fill:#000000"/>
    <path d="M494.539 91.575L459.975 112.876H443.376L428.121 158.012H405.721L420.974 112.876H395.987L430.548 91.575H494.539Z" fill="white" id="path4" style="fill:#000000"/>
    <path d="M363.519 117.483H386.844L386.405 118.78L379.651 138.737H356.381L349.778 158.012H327.36L349.881 91.5723H412.194L377.624 112.876H365.238L363.519 117.483Z" fill="white" id="path5" style="fill:#000000"/>
    <path d="M158.496 89.4076C141.165 83.2766 125.422 73.3494 112.425 60.3508C99.4225 47.3455 89.4929 31.599 83.3703 14.2569L81.6665 9.42834L79.9582 14.2685C73.8286 31.6037 63.906 47.3502 50.9082 60.351C44.414 66.8537 37.2248 72.5828 29.4954 77.4553C21.7728 82.3253 13.501 86.3389 4.83899 89.4078L0 91.1165L4.82738 92.8183C22.1585 98.9493 37.906 108.874 50.9082 121.882C57.4049 128.385 63.1371 135.569 68.0107 143.293C72.8842 151.024 76.8966 159.291 79.9579 167.962L81.6662 172.802L83.37 167.974C89.4927 150.634 99.4222 134.888 112.424 121.882C118.926 115.38 126.11 109.644 133.837 104.769C141.567 99.8964 149.839 95.8809 158.508 92.8188L163.335 91.1171L158.496 89.4084L158.496 89.4076ZM115.779 96.8269L87.3783 125.235C84.2246 128.389 79.1108 128.389 75.9572 125.235L47.5561 96.8269C44.4024 93.6725 44.4024 88.5575 47.5561 85.4034L75.9572 56.9956C79.1108 53.8412 84.2246 53.8412 87.3783 56.9956L115.779 85.4034C118.933 88.5578 118.933 93.6728 115.779 96.8269Z" fill="url(#paint0_linear_437_2699)" id="path6"/>
    <path d="M75.9893 102.573L75.9553 102.607C72.8013 105.762 67.6875 105.762 64.5336 102.607L53.0439 91.1151L53.078 91.0811L81.6659 62.4864L81.7 62.5262L81.734 62.5602C84.8879 65.7149 84.8879 70.8299 81.734 73.9846L70.3181 85.4031C67.1642 88.5578 67.1642 93.6728 70.3181 96.8274L76.0233 102.534L75.9893 102.573Z" fill="url(#paint1_linear_437_2699)" id="path7"/>
    <path d="M93.1555 85.3973C90.0015 88.5519 90.0015 93.6669 93.1555 96.8216L98.8664 102.534L98.8324 102.573L81.6661 119.744L81.6263 119.704L75.8816 113.958L75.9214 113.924L81.5926 108.251C84.7465 105.097 84.7465 99.9815 81.5926 96.8269L78.6178 93.8514C77.1066 92.3399 77.1066 89.8895 78.6178 88.378L93.0822 73.9102L93.122 73.9442L98.867 79.6905L98.8272 79.7245L93.156 85.397L93.1555 85.3973Z" fill="url(#paint2_linear_437_2699)" id="path8"/>
    <path d="M110.288 91.1151L110.248 91.1494L104.504 96.8954L104.47 96.8614L98.7251 91.1151L98.7588 91.0811L104.504 85.3295L104.538 85.3691L110.288 91.1151Z" fill="url(#paint3_linear_437_2699)" id="path9"/>
    <path d="M482.908 125.857L444.12 149.763L452.177 125.857H482.908Z" fill="white" id="path10" style="fill:#000000"/>
    <path d="M186.457 29.1408C195.865 29.1408 198.296 34.3607 198.698 39.1999H221.835C224.358 24.3947 214.917 12.4378 191.773 12.4378C166.71 12.4378 146.264 27.9067 139.801 46.981C133.334 66.0589 143.286 81.5316 168.353 81.5316C191.493 81.5316 209.046 69.5747 216.557 54.7659H193.42C189.738 59.6052 183.77 64.825 174.358 64.825C163.463 64.825 159.381 57.1407 162.822 46.981C166.266 36.8287 175.562 29.1408 186.457 29.1408Z" fill="white" id="path11" style="fill:#000000"/>
    <path d="M273.613 28.9506C266.356 28.9506 259.345 31.8885 255.483 36.9219L268 0L239.611 17.4972L218.354 80.2007H240.815L250.563 51.4401C252.043 47.0778 255.375 44.6059 260.254 44.6059C265.014 44.6059 266.401 47.5512 265.178 51.1566L255.334 80.2004H277.792L288.217 49.4526C292.399 37.1119 288.243 28.9503 273.613 28.9503L273.613 28.9506Z" fill="white" id="path12" style="fill:#000000"/>
    <path d="M342.218 29.7896C334.504 29.7896 327.303 34.4436 323.661 41.8408L327.661 30.0877H305.209L282.272 97.6946L310.64 80.2123L310.656 80.2013L317.516 59.9664C320.038 52.5221 326.141 48.92 334.294 48.3698C336.982 42.4271 339.951 37.1288 345.005 32.7208L345.834 30.2652C344.828 29.8836 344.374 29.7896 342.218 29.7896Z" fill="white" id="path13" style="fill:#000000"/>
    <path d="M383.916 28.9506C364.175 28.9506 347.391 40.3371 342.37 55.1423C337.353 69.9475 346.418 81.3414 366.155 81.3414C385.892 81.3414 402.684 69.9475 407.701 55.1423C412.722 40.3371 403.649 28.9506 383.916 28.9506ZM388.262 57.6291L379.171 63.5571C379.141 63.5795 379.108 63.6019 379.074 63.6243L378.832 63.7808L378.773 63.8182L374.888 66.3498C372.302 68.035 369.033 68.035 367.586 66.3498L365.395 63.7883L365.234 63.6019L360.124 57.6291C358.678 55.9439 359.606 53.2074 362.193 51.5183L375.57 42.8015C378.157 41.1125 381.426 41.1125 382.869 42.8015L390.335 51.5183C391.777 53.2074 390.853 55.9439 388.262 57.6291Z" fill="white" id="path14" style="fill:#000000"/>
    <path d="M499.427 28.9506C491.715 28.9506 483.206 31.9855 478.598 37.2089C477.309 31.9855 472.552 28.9506 464.046 28.9506C456.901 28.9506 449.971 31.9855 446.568 37.5856L449.11 30.088H426.686L409.696 80.2007H432.158L441.939 51.3469C443.419 46.981 446.419 44.7961 450.847 44.7961C455.045 44.7961 456.361 47.268 455.075 51.0598L445.197 80.2007H467.642L477.39 51.4401C478.87 47.0778 481.133 44.7961 485.666 44.7961C489.867 44.7961 491.827 47.3612 490.541 51.1566L480.693 80.2004H503.151L513.577 49.4526C517.822 36.9216 513.61 28.9506 499.427 28.9506Z" fill="white" id="path15" style="fill:#000000"/>
    <path d="M581.511 33.5292C577.273 30.6247 571.272 28.9506 563.701 28.9506C543.96 28.9506 527.175 40.3371 522.155 55.1423C517.138 69.9475 526.203 81.3414 545.94 81.3414C553.51 81.3414 560.648 79.6637 566.854 76.7593C576.825 72.095 584.392 64.2692 587.486 55.1423C590.58 46.0154 588.321 38.1898 581.511 33.5292ZM558.893 63.5983L558.539 63.8295L554.673 66.3498C552.082 68.035 548.814 68.035 547.371 66.3498L545.217 63.8331L545.198 63.8146C545.19 63.8035 545.179 63.7922 545.168 63.7811L545.034 63.6246C545.019 63.6061 545.004 63.5911 544.989 63.5687L544.978 63.5538L539.905 57.6294C538.462 55.9442 539.391 53.2077 541.977 51.5186L555.352 42.8018C557.942 41.1127 561.211 41.1127 562.654 42.8018L570.12 51.5186C571.563 53.2077 570.635 55.9442 568.048 57.6294L558.893 63.5986L558.893 63.5983Z" fill="white" id="path16" style="fill:#000000"/>
    <path d="M588.026 80.2013H565.575L582.563 30.0872H605.014L588.026 80.2013Z" fill="white" id="path17" style="fill:#000000"/>
    <path d="M587.273 66.1933L610 80.2013H582.771L587.273 66.1933Z" fill="white" id="path18" style="fill:#000000"/>
  </g>
  <defs id="defs41">
    <linearGradient id="paint0_linear_437_2699" x1="116.296" y1="125.753" x2="52.4821" y2="61.9536" gradientUnits="userSpaceOnUse">
      <stop stop-color="#FD411C" id="stop18"/>
      <stop offset="0.204" stop-color="#F1832C" id="stop19"/>
      <stop offset="0.374" stop-color="#F6B638" id="stop20"/>
      <stop offset="0.606" stop-color="#7DB222" id="stop21"/>
      <stop offset="0.807" stop-color="#64BC6E" id="stop22"/>
      <stop offset="1" stop-color="#48BAB0" id="stop23"/>
    </linearGradient>
    <linearGradient id="paint1_linear_437_2699" x1="116.295" y1="125.752" x2="52.4812" y2="61.9536" gradientUnits="userSpaceOnUse">
      <stop stop-color="#FD411C" id="stop24"/>
      <stop offset="0.204" stop-color="#F1832C" id="stop25"/>
      <stop offset="0.374" stop-color="#F6B638" id="stop26"/>
      <stop offset="0.606" stop-color="#7DB222" id="stop27"/>
      <stop offset="0.807" stop-color="#64BC6E" id="stop28"/>
      <stop offset="1" stop-color="#48BAB0" id="stop29"/>
    </linearGradient>
    <linearGradient id="paint2_linear_437_2699" x1="116.295" y1="125.752" x2="52.4811" y2="61.9536" gradientUnits="userSpaceOnUse">
      <stop stop-color="#FD411C" id="stop30"/>
      <stop offset="0.204" stop-color="#F1832C" id="stop31"/>
      <stop offset="0.374" stop-color="#F6B638" id="stop32"/>
      <stop offset="0.606" stop-color="#7DB222" id="stop33"/>
      <stop offset="0.807" stop-color="#64BC6E" id="stop34"/>
      <stop offset="1" stop-color="#48BAB0" id="stop35"/>
    </linearGradient>
    <linearGradient id="paint3_linear_437_2699" x1="127.715" y1="114.329" x2="63.9016" y2="50.5307" gradientUnits="userSpaceOnUse">
      <stop stop-color="#FD411C" id="stop36"/>
      <stop offset="0.204" stop-color="#F1832C" id="stop37"/>
      <stop offset="0.374" stop-color="#F6B638" id="stop38"/>
      <stop offset="0.606" stop-color="#7DB222" id="stop39"/>
      <stop offset="0.807" stop-color="#64BC6E" id="stop40"/>
      <stop offset="1" stop-color="#48BAB0" id="stop41"/>
    </linearGradient>
    <clipPath id="clip0_437_2699">
      <rect width="610" height="176" fill="white" id="rect41"/>
    </clipPath>
  </defs>
</svg>